<?xml version="1.0" standalone="no"?>
<!DOCTYPE svg PUBLIC "-//W3C//DTD SVG 20010904//EN"
 "http://www.w3.org/TR/2001/REC-SVG-20010904/DTD/svg10.dtd">
<svg version="1.0" xmlns="http://www.w3.org/2000/svg"
 width="596.000000pt" height="613.000000pt" viewBox="0 0 596.000000 613.000000"
 preserveAspectRatio="xMidYMid meet">

<g transform="translate(0.000000,613.000000) scale(0.100000,-0.100000)"
fill="#000000" stroke="none">
<path d="M3390 5356 c0 -341 -2 -385 -16 -390 -9 -3 -128 -6 -265 -6 -283 0
-278 -2 -208 75 22 24 39 48 37 53 -4 11 -110 131 -213 239 -38 41 -75 83 -83
94 -7 10 -19 19 -27 19 -7 0 -41 -31 -76 -70 -34 -38 -68 -70 -75 -70 -8 0
-47 16 -88 35 -41 19 -80 35 -85 35 -22 0 -31 42 -31 140 l0 100 -232 -2 -233
-3 -5 -112 c-3 -61 -7 -113 -10 -115 -3 -3 -27 -13 -55 -23 -27 -10 -65 -27
-83 -37 -18 -10 -39 -18 -46 -18 -7 0 -43 32 -78 70 -36 39 -70 70 -75 70 -6
0 -35 -26 -64 -58 -132 -143 -230 -250 -250 -275 l-21 -28 47 -50 c26 -28 43
-54 39 -59 -5 -4 -81 -10 -169 -12 -156 -3 -161 -4 -226 -35 -111 -54 -210
-180 -238 -303 -7 -30 -11 -471 -11 -1288 l0 -1243 25 -76 c42 -126 124 -219
235 -271 54 -25 62 -26 301 -30 203 -3 247 -1 257 11 8 10 12 118 14 388 l3
374 53 3 52 3 0 -379 c0 -309 3 -382 14 -391 9 -8 118 -11 382 -9 l369 3 5
385 5 385 55 0 55 0 5 -385 c3 -212 7 -386 8 -387 7 -9 1819 -1 1832 7 12 8
-5 29 -86 107 -281 271 -654 643 -654 653 0 6 63 10 188 10 201 0 249 8 326
55 73 44 146 125 179 199 47 103 47 103 47 1376 0 1049 -2 1207 -16 1266 -38
166 -135 280 -285 334 -48 18 -79 20 -291 20 l-238 0 0 -384z m532 225 c60
-29 113 -88 144 -158 l24 -55 0 -1031 c0 -568 0 -1038 0 -1044 0 -7 -29 7 -65
32 -36 24 -82 50 -102 56 -22 8 -118 15 -223 18 l-185 6 -3 1090 c-1 600 0
1096 3 1103 4 11 40 13 183 10 160 -3 182 -6 224 -27z m-1777 -123 c3 -13 6
-58 7 -102 l3 -79 50 -14 c68 -20 180 -72 227 -105 21 -16 42 -28 47 -28 5 0
37 30 71 68 l61 67 79 -85 c44 -47 80 -89 80 -95 0 -5 -25 -38 -55 -72 -57
-64 -65 -85 -41 -119 19 -27 96 -213 96 -232 0 -8 5 -32 11 -53 l12 -38 86 -3
86 -3 0 -125 0 -125 -87 -3 -87 -3 -11 -42 c-23 -89 -53 -175 -86 -240 -19
-37 -34 -75 -34 -83 0 -9 25 -44 55 -77 30 -34 55 -66 55 -72 0 -5 -36 -48
-79 -95 l-78 -84 -63 67 c-35 37 -68 67 -73 67 -6 0 -24 -11 -41 -24 -50 -38
-129 -76 -208 -100 l-73 -22 -5 -99 -5 -100 -115 0 -115 0 -3 92 c-2 56 -7 95
-15 100 -7 6 -48 22 -92 37 -44 15 -113 47 -153 72 -40 24 -76 44 -79 44 -4 0
-35 -30 -70 -67 l-63 -68 -80 85 c-43 47 -79 88 -80 92 0 4 27 37 60 75 33 37
60 70 60 74 0 4 -16 37 -36 74 -36 66 -83 195 -84 227 0 9 -5 29 -12 43 -11
24 -15 25 -94 25 -100 0 -96 -6 -92 150 l3 105 90 5 89 5 9 35 c23 90 62 201
93 259 38 73 38 71 -35 153 -28 31 -51 60 -51 65 1 4 37 46 81 93 l80 85 62
-67 c34 -38 66 -68 70 -68 4 0 31 15 60 33 66 42 146 79 220 101 l57 18 0 92
c0 51 3 96 7 99 3 4 55 7 114 7 104 0 109 -1 114 -22z m-949 -670 c-13 -80
-23 -87 -133 -90 l-98 -3 -3 -235 c-1 -129 0 -245 3 -257 5 -21 12 -22 102
-25 111 -3 97 9 154 -135 l33 -83 -25 -27 c-13 -16 -46 -52 -72 -81 -54 -58
-55 -53 11 -122 18 -19 85 -94 150 -167 l117 -132 78 79 77 80 73 -36 c39 -19
83 -40 97 -47 24 -12 25 -18 30 -122 l5 -110 230 0 230 0 5 108 c6 121 7 123
82 147 24 8 61 25 83 39 l39 24 71 -77 c71 -77 87 -87 102 -62 4 7 49 57 98
111 50 54 115 125 145 158 30 33 55 66 55 73 0 7 -28 44 -62 83 -35 38 -63 76
-63 83 0 7 17 58 38 113 l38 100 102 3 102 3 -2 257 -3 257 -97 3 c-61 2 -100
7 -105 15 -17 22 -35 99 -26 108 5 5 125 8 269 7 l259 -3 5 -775 5 -775 240
-5 c235 -5 241 -6 291 -32 58 -30 115 -95 144 -163 15 -34 20 -69 20 -131 0
-103 -27 -171 -94 -238 -78 -78 -84 -80 -394 -84 l-273 -3 -107 103 c-58 57
-235 229 -392 384 -406 399 -439 429 -445 413 -3 -8 -6 -212 -7 -454 l-3 -440
-46 -3 c-56 -4 -67 7 -71 73 l-3 50 -50 5 -50 5 -5 140 c-6 156 -17 191 -73
225 -28 18 -51 20 -195 20 -180 0 -203 -6 -243 -61 -19 -27 -22 -46 -25 -167
-3 -76 -6 -143 -9 -149 -3 -8 -23 -13 -54 -13 -56 0 -58 -3 -63 -85 l-3 -40
-305 -5 c-272 -5 -310 -7 -350 -24 -53 -23 -84 -42 -124 -73 -16 -13 -31 -21
-34 -18 -10 9 -9 1997 0 2055 17 96 66 174 140 221 67 43 86 47 247 48 l144 1
-7 -42z m1556 -1781 c337 -330 960 -942 1071 -1051 53 -53 97 -101 97 -106 0
-7 -242 -9 -707 -8 l-708 3 -3 693 c-2 550 0 692 10 692 7 0 115 -100 240
-223z m-724 -97 c2 -52 0 -110 -3 -128 l-6 -33 -142 3 -142 3 -3 114 c-1 63 0
121 2 128 4 11 36 13 148 11 l143 -3 3 -95z m116 -306 c3 -9 6 -31 6 -49 0
-69 15 -65 -270 -65 -286 0 -275 -3 -265 65 2 17 4 38 4 48 1 16 20 17 260 17
227 0 260 -2 265 -16z m-889 -439 l0 -320 -166 -3 c-148 -2 -173 0 -222 18
-66 25 -121 76 -162 150 -28 51 -30 63 -30 155 0 97 1 102 38 167 26 47 52 77
84 100 78 53 101 58 288 55 l170 -2 0 -320z m889 179 c8 -20 8 -208 0 -228 -5
-14 -38 -16 -264 -16 -238 0 -259 1 -264 18 -9 31 -4 217 6 230 8 9 73 12 263
12 221 0 254 -2 259 -16z m4 -427 c5 -79 13 -77 -274 -77 -140 0 -255 3 -255
8 -4 21 -5 108 -2 115 3 4 122 6 266 5 l262 -3 3 -48z"/>
<path d="M1848 4991 c-153 -65 -262 -184 -319 -348 -54 -157 -43 -326 29 -476
104 -214 329 -341 540 -306 339 57 548 441 425 784 -58 164 -166 282 -313 345
-45 19 -76 24 -175 26 -113 3 -124 2 -187 -25z m244 -102 c155 -32 261 -132
329 -309 9 -22 14 -75 14 -140 0 -111 -18 -177 -71 -260 -50 -79 -142 -151
-230 -179 -69 -22 -198 -11 -266 22 -108 53 -184 139 -229 259 -24 62 -29 238
-9 291 66 173 171 278 315 313 65 16 83 16 147 3z"/>
<path d="M2682 2393 l3 -348 358 -3 c209 -1 357 2 357 7 0 13 -689 685 -706
689 -12 3 -14 -46 -12 -345z m282 -81 c76 -77 126 -134 122 -141 -5 -7 -52
-11 -141 -11 -121 0 -135 2 -144 19 -11 19 -14 241 -5 266 9 22 26 9 168 -133z"/>
<path d="M2434 1597 c-2 -7 -3 -73 -2 -146 3 -117 5 -135 21 -145 15 -9 21 -7
34 9 9 12 13 14 11 5 -3 -8 -15 -21 -29 -27 l-24 -13 26 0 c38 0 49 18 48 80
-2 54 -2 54 -9 15 l-7 -40 -2 53 -1 53 56 -63 c66 -74 80 -84 100 -68 23 20
17 36 -40 98 l-55 59 45 50 c46 54 54 77 29 87 -16 6 -45 -2 -45 -13 0 -3 -20
-28 -45 -56 l-44 -50 1 45 c1 45 1 45 8 10 l7 -35 2 35 c0 19 -4 42 -9 50 -9
13 -10 13 -10 0 -1 -12 -3 -11 -11 3 -12 20 -47 23 -55 4z"/>
<path d="M610 1581 c-17 -32 -13 -237 5 -272 l16 -30 82 3 82 3 2 30 c2 27 2
28 -7 8 -5 -13 -15 -23 -21 -23 -8 0 -8 4 1 15 19 23 5 43 -34 51 -51 9 -46
32 7 36 39 3 42 5 44 33 3 29 2 29 -9 8 -6 -13 -15 -23 -21 -23 -5 0 -4 7 3
15 19 23 5 43 -35 51 -44 8 -38 16 23 29 42 9 47 13 50 40 l4 30 -22 -28 c-17
-21 -30 -27 -60 -27 -32 0 -39 -4 -43 -22 -4 -20 -4 -19 -6 5 -1 26 1 27 43
27 47 0 70 17 60 44 -5 13 -21 16 -80 16 -62 0 -75 -3 -84 -19z m103 -168
c-23 -3 -33 -10 -36 -26 -4 -18 -5 -17 -6 6 -1 25 2 27 37 25 36 -1 36 -1 5
-5z m10 -120 c-18 -2 -48 -2 -65 0 -18 2 -4 4 32 4 36 0 50 -2 33 -4z"/>
<path d="M1497 1594 c-11 -11 -8 -44 3 -44 6 0 9 -6 8 -12 -2 -9 14 -13 52
-14 l55 -1 -50 7 -50 7 53 1 c28 1 52 0 52 -3 0 -3 -31 -47 -70 -98 -38 -50
-70 -97 -70 -104 0 -21 23 -28 120 -34 l95 -6 -97 1 c-53 1 -94 -3 -89 -7 4
-4 57 -6 117 -5 l109 3 2 30 c3 29 2 29 -9 8 -6 -13 -15 -23 -20 -23 -4 0 -3
9 4 20 17 27 1 41 -56 47 l-46 6 39 46 c62 75 94 129 87 147 -5 14 -10 10 -24
-18 -16 -31 -101 -148 -125 -173 -19 -19 7 19 66 99 36 49 57 87 55 100 -3 20
-10 21 -104 24 -55 1 -103 0 -107 -4z"/>
<path d="M2660 1578 c0 -7 -20 -37 -45 -65 -58 -67 -42 -78 19 -13 45 48 56
73 36 85 -5 3 -10 0 -10 -7z"/>
<path d="M3885 1514 c-22 -2 -114 -8 -205 -14 -335 -23 -863 -93 -895 -120
-18 -15 -19 -21 -2 -43 12 -17 28 -15 265 23 482 77 664 95 879 88 149 -5 196
-17 201 -54 7 -50 -69 -107 -325 -246 -225 -121 -292 -167 -394 -268 -97 -96
-122 -136 -122 -198 0 -35 6 -49 34 -78 50 -52 135 -75 279 -77 156 -1 260 23
595 139 272 94 325 110 325 101 0 -2 -11 -30 -25 -61 -45 -102 -38 -115 113
-214 537 -350 815 -468 1025 -433 152 25 251 97 283 207 27 92 2 177 -101 343
-114 185 -204 268 -380 352 -133 63 -215 80 -406 87 l-157 5 -69 -36 c-39 -19
-85 -45 -104 -56 l-34 -21 62 0 c35 0 65 5 69 11 4 7 29 10 67 7 50 -4 64 -9
81 -30 12 -15 40 -31 65 -38 40 -10 45 -10 68 12 14 13 36 42 50 66 26 44 53
56 53 23 0 -24 -73 -121 -137 -183 -42 -41 -177 -144 -303 -232 -34 -23 -41
-33 -36 -52 4 -13 2 -24 -4 -24 -15 0 -41 45 -35 61 3 8 42 39 88 70 93 64
257 198 257 210 0 12 -86 22 -130 15 -59 -9 -122 3 -127 25 -5 16 -15 19 -69
19 -55 0 -67 -3 -85 -24 -14 -16 -37 -26 -67 -31 -81 -11 -220 -54 -415 -126
-240 -90 -366 -119 -513 -119 -216 0 -290 54 -215 156 40 56 146 153 217 201
34 23 137 82 230 130 274 144 358 209 370 285 7 44 -28 97 -81 122 -39 20
-147 29 -240 20z"/>
<path d="M895 1340 c-18 -20 -18 -21 3 -43 l22 -21 22 21 c21 22 21 23 3 43
-10 11 -21 20 -25 20 -4 0 -15 -9 -25 -20z"/>
<path d="M1115 1340 c-15 -16 -17 -25 -8 -38 13 -22 43 -22 57 0 8 14 6 22
-10 38 l-20 21 -19 -21z"/>
<path d="M1326 1341 c-15 -16 -15 -22 -4 -40 16 -26 30 -27 53 -1 17 19 17 21
0 40 -22 25 -28 25 -49 1z"/>
<path d="M1845 1340 c-15 -16 -17 -25 -8 -38 13 -22 43 -22 57 0 8 14 6 22
-10 38 l-20 21 -19 -21z"/>
<path d="M2055 1340 c-18 -20 -18 -21 3 -43 l22 -21 22 21 c21 22 21 23 3 43
-10 11 -21 20 -25 20 -4 0 -15 -9 -25 -20z"/>
<path d="M2275 1340 c-15 -16 -17 -25 -8 -38 13 -22 43 -22 57 0 8 14 6 22
-10 38 l-20 21 -19 -21z"/>
<path d="M2677 1324 c-4 -12 -17 -26 -30 -32 -21 -10 -21 -11 6 -11 29 -1 41
15 35 46 -4 16 -5 16 -11 -3z"/>
<path d="M755 948 c-99 -21 -143 -133 -94 -236 16 -32 33 -50 63 -64 36 -17
37 -19 11 -14 l-30 5 30 -14 c67 -32 151 -8 192 54 24 35 30 94 13 121 -6 10
-10 11 -10 3 0 -9 -6 -7 -18 5 -18 16 -18 18 0 35 21 20 21 64 0 60 -6 -2 -12
1 -12 7 0 26 -89 50 -145 38z m48 -65 c-7 -2 -19 -2 -25 0 -7 3 -2 5 12 5 14
0 19 -2 13 -5z m95 -20 c-14 -14 -21 -14 -48 -3 -17 7 -29 15 -27 17 3 2 17
-2 32 -9 24 -11 30 -10 39 4 6 9 12 15 15 12 3 -2 -3 -12 -11 -21z m-138 13
c0 -2 -8 -10 -17 -17 -16 -13 -17 -12 -4 4 13 16 21 21 21 13z m99 -30 c23
-13 22 -13 -19 -19 -57 -7 -66 -18 -49 -56 9 -20 21 -31 34 -30 20 0 20 0 0 9
-19 8 -19 9 3 9 26 1 28 -15 5 -41 -21 -24 -55 -23 -84 3 -13 11 -19 18 -14
15 7 -3 9 8 7 28 -2 19 3 47 12 65 13 25 23 31 49 31 17 -1 43 -7 56 -14z
m-132 -88 c-3 -8 -6 -5 -6 6 -1 11 2 17 5 13 3 -3 4 -12 1 -19z m188 -58 c-16
-32 -68 -70 -95 -70 -8 0 4 9 28 20 33 15 47 29 60 59 9 22 18 36 20 31 2 -5
-4 -23 -13 -40z"/>
<path d="M1786 944 c-3 -9 -6 -74 -6 -145 0 -139 13 -189 48 -189 31 0 42 22
42 86 0 42 5 67 15 78 20 19 19 26 -2 27 -13 0 -14 2 -4 6 24 10 41 -28 41
-89 0 -65 20 -108 51 -108 10 0 23 9 29 19 12 23 12 158 0 186 l-9 20 -1 -20
c-1 -17 -3 -15 -11 6 -13 36 -62 56 -100 42 -16 -6 -29 -7 -29 -2 0 5 5 9 10
9 6 0 10 13 10 29 0 45 -70 83 -84 45z m71 -181 c-3 -10 -5 -4 -5 12 0 17 2
24 5 18 2 -7 2 -21 0 -30z m-12 -122 c-3 -6 -11 -11 -16 -11 -5 0 -4 6 3 14
14 16 24 13 13 -3z m140 0 c-3 -6 -11 -11 -16 -11 -5 0 -4 6 3 14 14 16 24 13
13 -3z"/>
<path d="M2072 948 c-18 -18 -14 -46 8 -58 15 -8 24 -6 40 10 11 11 20 16 20
11 0 -5 -7 -16 -15 -25 -19 -19 0 -33 21 -15 16 13 15 59 -1 60 -5 0 -14 7
-18 15 -10 17 -39 18 -55 2z"/>
<path d="M1006 854 c-23 -22 -23 -186 -1 -208 9 -8 15 -19 15 -23 -2 -14 30
-15 45 -3 10 8 15 32 15 69 0 64 3 70 45 91 42 22 45 55 6 75 -24 12 -36 13
-51 5 -14 -7 -26 -8 -39 0 -15 7 -23 6 -35 -6z m130 -43 c-3 -4 -19 -14 -36
-21 -28 -12 -30 -15 -30 -69 0 -37 -6 -64 -16 -77 -15 -18 -15 -18 -5 3 6 12
11 47 11 77 0 54 1 56 38 75 43 23 45 24 38 12z"/>
<path d="M1259 855 c-38 -21 -62 -86 -49 -133 20 -75 90 -127 144 -106 27 10
18 25 -11 19 l-28 -6 25 15 c14 8 27 10 28 5 5 -12 49 -12 55 1 3 6 4 5 3 -2
-1 -7 -13 -15 -27 -19 -22 -6 -22 -7 -5 -14 10 -5 26 -4 35 2 13 8 16 30 16
117 0 58 -3 105 -7 104 -4 -2 -14 6 -22 17 -13 18 -17 18 -37 7 -15 -10 -24
-11 -32 -3 -15 15 -57 13 -88 -4z m178 -142 c-2 -21 -4 -6 -4 32 0 39 2 55 4
38 2 -18 2 -50 0 -70z m-144 72 c-3 -9 -8 -14 -10 -11 -3 3 -2 9 2 15 9 16 15
13 8 -4z m67 -27 c0 -51 -43 -76 -71 -41 -8 9 -9 14 -3 10 7 -4 14 5 18 23 3
18 12 30 21 30 10 0 13 5 9 13 -5 8 -2 8 9 -2 9 -7 17 -22 17 -33z"/>
<path d="M1505 861 c-9 -15 -13 -249 -5 -281 5 -18 13 -25 31 -25 22 0 24 5
27 48 3 49 7 53 32 37 13 -8 13 -10 -2 -10 -12 0 -18 -10 -20 -37 -2 -28 -9
-41 -28 -50 -22 -11 -23 -13 -6 -19 24 -9 56 28 56 65 0 25 3 27 34 23 40 -5
81 19 102 59 18 36 18 110 -1 135 -13 17 -13 15 -3 -17 8 -26 7 -44 0 -65 -11
-28 -11 -28 -6 7 12 76 -45 147 -108 135 -44 -8 -50 -9 -74 -1 -12 4 -25 2
-29 -4z m127 -68 c20 -18 23 -45 8 -74 -12 -21 -55 -26 -66 -7 -4 7 -3 8 4 4
8 -5 12 3 12 24 0 23 6 33 23 39 20 8 20 10 4 16 -23 9 -45 -10 -50 -43 l-4
-27 -2 27 c-1 27 21 58 41 58 6 0 20 -7 30 -17z m78 -108 c0 -7 -54 -55 -63
-55 -4 0 7 13 25 30 34 31 38 33 38 25z"/>
<path d="M2079 860 c-22 -14 -26 -191 -5 -213 9 -9 17 -20 16 -24 0 -4 10 -8
22 -8 32 0 48 39 48 115 0 112 -14 126 -21 20 l-5 -95 -2 97 c-2 82 -5 99 -20
107 -11 6 -24 6 -33 1z"/>
<path d="M2274 851 c-58 -35 -69 -130 -21 -182 12 -13 21 -27 20 -30 -1 -4 8
-5 20 -2 16 3 18 2 9 -5 -30 -21 58 -31 102 -11 30 14 40 35 26 57 -8 15 -9
15 -10 1 0 -21 -32 -49 -56 -49 -13 1 -8 6 14 15 26 11 33 20 30 37 -3 21 -8
23 -46 20 l-43 -3 3 38 3 38 52 3 c41 2 53 7 58 22 10 31 -6 45 -19 18 -6 -12
-20 -24 -31 -25 -17 -3 -16 -1 3 7 12 5 22 18 22 29 0 42 -82 55 -136 22z m68
-48 c-28 -6 -45 -38 -38 -71 5 -20 4 -23 -4 -12 -23 34 5 91 43 89 l22 -2 -23
-4z"/>
<path d="M2500 850 c-29 -29 -25 -70 9 -108 17 -17 36 -32 43 -32 7 1 2 7 -12
15 -14 8 -20 14 -14 15 18 0 47 -27 40 -38 -4 -7 -14 -7 -35 1 -31 12 -61 4
-61 -15 0 -8 13 -28 29 -46 25 -26 37 -32 71 -32 69 0 122 71 90 120 -8 12
-10 12 -10 -5 -1 -18 -2 -18 -10 3 -5 12 -24 30 -41 40 -17 9 -38 22 -47 29
-15 11 -13 12 13 13 20 0 26 -3 17 -9 -10 -6 -5 -11 19 -20 39 -13 59 -1 59
38 l0 26 -13 -25 c-7 -14 -21 -26 -32 -27 -17 -3 -16 -1 3 7 49 21 10 70 -56
70 -29 0 -48 -6 -62 -20z m121 -200 c-13 -11 -31 -20 -40 -20 -9 0 0 8 19 19
46 24 50 24 21 1z"/>
</g>
</svg>
