<?xml version="1.0" standalone="no"?>
<!DOCTYPE svg PUBLIC "-//W3C//DTD SVG 20010904//EN"
 "http://www.w3.org/TR/2001/REC-SVG-20010904/DTD/svg10.dtd">
<svg version="1.0" xmlns="http://www.w3.org/2000/svg"
 width="829.000000pt" height="1001.000000pt" viewBox="0 0 829.000000 1001.000000"
 preserveAspectRatio="xMidYMid meet">

<g transform="translate(0.000000,1001.000000) scale(0.100000,-0.100000)"
fill="#000000" stroke="none">
<path d="M8278 5030 l-3 -4980 -4137 0 -4138 0 0 -25 0 -25 4145 0 4145 0 0
5005 c0 2753 -2 5005 -5 5005 -3 0 -6 -2241 -7 -4980z"/>
<path d="M5495 9859 c-20 -6 -104 -81 -255 -230 -124 -121 -287 -280 -362
-352 -76 -72 -138 -136 -138 -141 0 -5 44 34 98 86 53 53 142 140 197 193 55
53 168 163 250 244 83 81 162 155 176 165 68 44 167 7 208 -76 33 -70 28 -100
-27 -160 -75 -83 -121 -126 -127 -120 -3 3 -5 1 -5 -5 0 -5 -35 -44 -77 -85
-43 -42 -138 -134 -211 -206 -95 -92 -139 -129 -155 -128 -14 1 -40 -16 -70
-44 -27 -25 -52 -46 -56 -48 -5 -1 -14 11 -21 28 -18 42 -95 108 -137 116 -19
4 -40 12 -47 19 -29 30 -97 -67 -317 -450 -117 -203 -222 -387 -233 -407 -12
-21 -24 -38 -28 -38 -3 0 -18 21 -34 47 l-27 47 35 30 c43 38 58 65 58 105 0
72 -50 143 -130 183 -42 22 -76 23 -114 3 -15 -8 -29 -15 -31 -15 -4 0 -85
140 -85 148 0 7 154 160 483 481 127 124 140 148 118 221 -23 79 -136 159
-205 146 -25 -5 -96 -68 -317 -284 -599 -584 -559 -542 -559 -587 0 -37 13
-113 70 -430 23 -127 25 -171 8 -181 -7 -5 -96 -9 -198 -9 -191 -2 -315 -16
-463 -54 -79 -21 -203 -63 -237 -81 -14 -7 -33 -2 -81 23 -61 31 -65 32 -193
32 -116 0 -137 -3 -181 -23 -108 -50 -125 -85 -125 -255 l0 -124 -127 -124
c-365 -356 -397 -391 -492 -554 -101 -173 -175 -387 -206 -598 -18 -123 -21
-413 -5 -545 39 -337 166 -709 355 -1037 16 -27 73 -116 127 -196 81 -120 98
-152 99 -185 0 -21 6 -56 12 -77 l12 -38 97 93 c206 199 235 217 332 206 158
-18 295 -202 257 -344 -9 -35 -56 -85 -331 -355 -575 -564 -684 -669 -692
-669 -4 0 -8 17 -8 38 0 53 -54 156 -109 211 -56 54 -138 93 -208 99 -29 3
-53 8 -53 12 0 4 20 24 46 45 25 20 43 40 40 43 -8 8 -165 -144 -199 -192 -54
-78 -31 -208 55 -302 28 -30 71 -67 97 -82 41 -24 56 -27 133 -27 49 0 88 -4
88 -8 0 -4 -51 -142 -114 -305 -62 -163 -121 -318 -130 -343 -12 -30 -43 -72
-92 -122 l-75 -76 3 -123 3 -122 80 -23 c44 -13 136 -39 205 -57 69 -18 269
-73 445 -121 176 -48 358 -98 405 -110 146 -39 380 -103 510 -138 223 -61 314
-86 370 -101 77 -20 703 -190 830 -226 58 -16 323 -88 590 -160 459 -124 1236
-336 1800 -490 140 -38 354 -96 475 -129 l219 -59 36 30 c33 29 447 431 950
923 123 121 251 246 283 277 l59 57 -4 114 c-1 64 -6 118 -9 122 -4 3 -139 42
-300 86 -162 44 -352 95 -424 115 -247 67 -341 93 -550 149 -115 31 -231 63
-256 71 l-47 15 -47 147 c-25 81 -71 226 -102 322 -30 96 -68 216 -84 265 -48
150 -301 952 -395 1249 l-87 278 32 77 c60 142 101 300 121 457 16 126 14 399
-4 532 -72 527 -352 1093 -755 1524 l-71 76 -10 199 c-12 231 -34 782 -51
1236 l-11 319 78 79 c76 77 107 107 274 266 245 235 281 272 290 304 15 52 -5
106 -59 159 -52 51 -107 72 -156 59z m-1218 -285 c-3 -3 -12 -4 -19 -1 -8 3
-5 6 6 6 11 1 17 -2 13 -5z m-136 -122 c-14 -26 -41 -48 -41 -33 0 6 4 11 9
11 5 0 11 9 14 20 3 11 10 20 16 20 8 0 9 -6 2 -18z m-87 -93 c-3 -5 -10 -7
-15 -3 -5 3 -7 10 -3 15 3 5 10 7 15 3 5 -3 7 -10 3 -15z m-84 -74 c-7 -9 -15
-13 -19 -10 -3 3 1 10 9 15 21 14 24 12 10 -5z m-73 -69 c-18 -18 -34 -32 -36
-30 -6 5 50 64 61 64 4 0 -7 -15 -25 -34z m-85 -78 c-7 -7 -12 -8 -12 -2 0 14
12 26 19 19 2 -3 -1 -11 -7 -17z m-42 -45 c0 -5 -13 -17 -28 -28 -27 -19 -27
-19 -12 0 22 29 40 42 40 28z m-70 -77 c0 -2 -7 -9 -15 -16 -13 -11 -14 -10
-9 4 5 14 24 23 24 12z m1344 -156 c6 -121 23 -569 24 -620 0 -14 5 -151 11
-305 7 -154 15 -362 19 -462 l7 -182 -50 49 c-27 27 -51 60 -52 72 -4 51 -52
1358 -53 1424 0 70 1 72 41 114 22 23 42 40 44 38 2 -1 6 -59 9 -128z m-1449
50 c-4 -12 -9 -19 -12 -17 -3 3 -2 15 2 27 4 12 9 19 12 17 3 -3 2 -15 -2 -27z
m-28 -15 c0 -8 -4 -12 -9 -9 -4 3 -8 9 -8 15 0 5 4 9 8 9 5 0 9 -7 9 -15z
m500 -286 c68 -33 111 -108 99 -172 -3 -19 -21 -48 -38 -66 l-32 -33 -21 28
c-33 46 -145 228 -145 237 0 10 40 26 69 26 14 1 44 -8 68 -20z m-592 -520
c128 -12 359 -65 495 -114 537 -192 1011 -539 1392 -1020 58 -73 154 -211 182
-261 9 -16 28 -47 41 -69 34 -55 184 -361 206 -420 118 -322 173 -647 159
-950 l-1 -30 -11 25 c-6 14 -12 48 -14 75 -7 111 -16 180 -25 197 -5 9 -9 33
-9 52 0 51 -37 235 -66 330 -95 306 -267 658 -419 857 -11 14 -27 36 -35 49
-82 124 -347 414 -488 533 -235 199 -402 311 -647 432 -273 136 -564 228 -835
266 -127 17 -425 14 -545 -5 -179 -30 -191 -32 -202 -39 -6 -4 -14 -3 -17 1
-7 11 104 44 244 73 174 36 349 41 595 18z m-205 -89 c543 -56 1099 -318 1576
-741 153 -135 353 -355 450 -495 158 -225 228 -344 318 -539 176 -383 252
-744 235 -1120 -7 -168 -36 -353 -60 -381 -6 -7 -8 -17 -5 -23 10 -16 -15 -60
-30 -54 -8 3 -14 12 -14 20 0 8 -4 11 -10 8 -5 -3 -10 -15 -10 -26 0 -10 -5
-18 -11 -16 -6 1 -16 -7 -22 -18 -7 -11 -13 -22 -15 -25 -2 -2 -7 2 -12 10 -7
11 -10 4 -11 -25 -1 -22 -1 -44 0 -48 1 -4 -8 -3 -20 4 -15 8 -19 8 -15 0 4
-6 3 -11 -2 -11 -5 0 -14 -21 -20 -47 l-11 -48 4 44 c2 30 1 40 -6 30 -8 -12
-10 -12 -19 1 -11 17 -13 34 -4 43 22 21 25 478 4 622 -20 147 -99 453 -140
550 -5 11 -21 49 -36 85 -25 64 -87 200 -103 230 -184 341 -363 581 -623 835
-214 210 -398 351 -648 497 -272 158 -621 287 -900 332 -204 32 -244 36 -394
36 l-156 0 -2 90 c-1 50 -2 98 -2 108 -1 14 19 21 109 40 61 13 142 27 180 31
101 12 314 12 425 1z m-1324 -406 c-3 -9 -6 -22 -6 -30 0 -8 -6 -14 -14 -14
-8 0 -16 -4 -18 -8 -1 -5 -25 -21 -53 -36 l-50 -28 65 66 c64 65 88 81 76 50z
m730 -61 l35 -37 -53 -53 -53 -54 -3 42 c-2 23 0 54 3 68 4 14 7 28 7 31 0 9
19 40 24 40 3 0 21 -17 40 -37z m284 12 c0 5 5 4 11 -2 7 -7 -1 -23 -30 -54
-36 -39 -41 -41 -41 -22 0 15 5 21 14 17 15 -6 29 27 27 61 -2 17 0 17 8 5 6
-8 11 -11 11 -5z m-38 -37 c-7 -7 -12 -8 -12 -2 0 14 12 26 19 19 2 -3 -1 -11
-7 -17z m121 -59 c16 -28 26 -53 23 -56 -3 -4 -6 -2 -6 3 0 6 -19 21 -42 34
-24 13 -45 25 -47 27 -5 4 30 43 38 43 3 0 19 -23 34 -51z m577 -69 c0 -15 -7
-20 -25 -20 -24 0 -24 1 -7 19 22 25 32 26 32 1z m-649 -100 c51 -65 51 -66
31 -100 -16 -26 -21 -28 -31 -16 -16 20 -114 56 -149 56 -25 0 -23 4 37 61 34
34 66 57 70 52 4 -4 23 -28 42 -53z m189 41 c0 -5 -7 -14 -15 -21 -8 -7 -15
-10 -15 -7 0 3 -3 12 -6 21 -4 12 0 16 15 16 12 0 21 -4 21 -9z m50 -11 c0 -5
-4 -10 -10 -10 -5 0 -10 5 -10 10 0 6 5 10 10 10 6 0 10 -4 10 -10z m180 -30
c0 -5 -4 -10 -10 -10 -5 0 -10 5 -10 10 0 6 5 10 10 10 6 0 10 -4 10 -10z
m-1517 -21 c67 -34 77 -47 77 -99 0 -38 -5 -51 -29 -74 l-29 -28 -17 33 c-18
33 -65 166 -65 181 0 13 18 9 63 -13z m2062 -13 c9 -13 18 -45 21 -72 6 -48 4
-50 -39 -93 l-45 -43 -56 21 c-31 12 -66 21 -76 21 -11 0 -20 3 -20 6 0 9 181
184 191 184 5 0 16 -11 24 -24z m-480 4 c3 -5 1 -10 -4 -10 -6 0 -11 5 -11 10
0 6 2 10 4 10 3 0 8 -4 11 -10z m225 -59 c0 -11 11 -28 24 -38 26 -21 24 -27
-27 -73 l-28 -25 -30 34 c-16 19 -29 36 -29 40 0 10 71 81 81 81 5 0 9 -9 9
-19z m-1934 -150 c45 -21 84 -43 88 -49 4 -7 -19 -38 -52 -72 l-59 -61 -35 58
c-52 86 -88 160 -80 167 10 11 49 -2 138 -43z m2214 46 c0 -2 -9 -12 -20 -22
-24 -21 -27 -14 -4 9 15 15 24 20 24 13z m117 -265 l-146 -145 -60 55 c-33 31
-74 59 -91 63 -16 4 -32 10 -35 15 -5 8 196 212 215 218 6 2 10 -1 10 -6 0 -6
13 -20 28 -31 l28 -20 60 40 59 40 39 -41 39 -42 -146 -146z m-1117 133 c0
-21 -5 -25 -30 -25 -35 0 -36 3 -13 30 24 27 43 25 43 -5z m-1084 -16 c4 -7
-54 -72 -137 -156 l-144 -144 -35 39 c-53 59 -121 162 -115 173 10 16 47 10
150 -25 l100 -35 80 80 c44 43 83 79 87 79 4 0 10 -5 14 -11z m1904 -43 c0 -5
-48 -56 -53 -56 -7 0 -15 49 -9 55 6 6 62 7 62 1z m-765 -175 c3 -6 -28 -42
-69 -82 -41 -40 -77 -83 -81 -96 -3 -14 -1 -61 5 -105 11 -77 10 -81 -10 -103
l-22 -24 -67 68 c-36 37 -77 75 -91 83 l-25 16 80 82 c44 45 111 109 148 141
67 59 68 59 97 44 16 -8 31 -19 35 -24z m-1367 -188 l-147 -147 -27 24 c-14
14 -53 56 -87 93 -55 63 -59 70 -44 84 16 17 20 16 202 -14 27 -4 40 4 115 75
l85 81 25 -25 25 -24 -147 -147z m2402 186 c0 -13 -270 -289 -282 -289 -5 0
-8 8 -8 18 0 25 -55 117 -85 140 -32 25 -32 36 2 60 l27 20 41 -26 c32 -21 52
-26 105 -27 l65 0 59 58 c60 57 76 67 76 46z m-1005 -29 c-10 -11 -20 -18 -22
-16 -6 5 30 44 36 39 2 -1 -4 -12 -14 -23z m-65 -65 c-47 -49 -59 -44 -14 5
21 22 40 38 42 35 3 -3 -10 -21 -28 -40z m54 11 c-22 -35 -21 -122 3 -148 18
-20 46 -20 101 -3 38 13 29 -36 -15 -74 -20 -17 -39 -31 -43 -31 -4 0 -17 20
-29 44 -13 24 -41 65 -62 91 -21 26 -39 50 -39 54 0 8 94 100 98 96 2 -2 -4
-15 -14 -29z m221 -66 c3 -5 2 -10 -4 -10 -5 0 -13 5 -16 10 -3 6 -2 10 4 10
5 0 13 -4 16 -10z m48 -16 c9 -9 -4 -35 -14 -28 -5 3 -9 12 -9 20 0 14 12 19
23 8z m243 -39 c5 -20 -1 -33 -30 -62 -36 -37 -36 -37 -36 -11 0 14 -3 39 -6
56 -5 24 -2 31 12 35 41 10 54 7 60 -18z m652 4 c1 -8 -60 -74 -137 -146 -126
-120 -171 -152 -171 -123 0 15 283 290 295 286 6 -1 11 -9 13 -17z m-298 -12
c0 -2 -17 -19 -37 -38 l-38 -34 34 38 c33 34 41 42 41 34z m85 -122 c-71 -69
-136 -125 -144 -125 -9 0 0 15 24 40 21 22 37 42 34 44 -3 3 -47 -37 -99 -89
-52 -52 -99 -95 -105 -95 -5 0 -23 10 -38 23 l-29 22 147 144 146 143 40 -26
39 -27 47 36 c90 69 66 33 -62 -90z m-2272 52 l37 -32 -144 -144 -144 -144
-45 32 c-25 17 -70 53 -99 80 l-53 49 20 22 c19 21 25 22 115 16 l96 -6 79 80
c44 44 84 80 90 80 5 -1 27 -15 48 -33z m1882 23 c3 -5 -1 -10 -9 -10 -9 0
-16 5 -16 10 0 6 4 10 9 10 6 0 13 -4 16 -10z m603 -30 c-6 -22 -21 -51 -34
-65 -13 -14 -24 -29 -24 -32 0 -12 -53 -63 -66 -63 -6 0 -14 -9 -17 -21 -3
-12 -10 -18 -17 -14 -6 4 -9 1 -8 -7 2 -7 -3 -12 -10 -10 -8 1 -11 -1 -9 -5 3
-5 -1 -14 -9 -21 -8 -7 -14 -9 -15 -5 0 4 -5 -3 -10 -17 -8 -20 -12 -22 -19
-10 -8 12 -10 11 -10 -6 0 -12 -6 -27 -14 -33 -13 -11 -14 -4 -9 41 5 53 5 53
136 181 72 70 134 127 138 127 4 0 2 -18 -3 -40z m-1595 -32 c6 -36 36 -108
64 -150 17 -27 17 -28 -4 -49 l-21 -22 -40 29 c-35 25 -40 35 -46 79 -10 82
-7 117 10 136 21 23 30 18 37 -23z m1217 29 c0 -2 -12 -14 -27 -28 l-28 -24
24 28 c23 25 31 32 31 24z m-170 -23 c17 -19 79 -46 91 -38 5 3 9 1 9 -4 0 -4
-24 -29 -54 -55 l-53 -46 -7 57 c-4 31 -9 66 -12 79 -7 26 7 30 26 7z m-500
-24 c0 -14 -7 -20 -22 -20 -20 0 -21 1 -3 20 10 11 20 20 22 20 1 0 3 -9 3
-20z m245 -60 c3 -5 -1 -10 -9 -10 -8 0 -18 5 -21 10 -3 6 1 10 9 10 8 0 18
-4 21 -10z m45 -10 c0 -5 -7 -10 -16 -10 -8 0 -12 5 -9 10 3 6 10 10 16 10 5
0 9 -4 9 -10z m755 -41 l30 -30 -148 -146 -148 -146 -29 28 c-17 16 -30 32
-30 36 0 8 282 289 291 289 3 0 18 -14 34 -31z m85 -138 l-143 -136 -66 -6
c-36 -4 -67 -5 -69 -4 -6 5 238 238 264 252 33 18 135 42 147 35 5 -2 -55 -66
-133 -141z m177 112 c10 -25 -276 -296 -295 -280 -10 8 17 41 130 154 78 79
146 143 151 143 4 0 11 -8 14 -17z m-2760 -91 l63 -39 -146 -139 c-80 -76
-147 -141 -149 -143 -8 -7 -205 119 -205 131 0 4 12 19 26 33 21 21 38 26 98
31 l72 7 82 78 c44 44 85 79 89 79 4 0 36 -17 70 -38z m69 -79 c-58 -65 -282
-281 -285 -277 -6 6 271 284 283 284 5 0 6 -3 2 -7z m2610 -55 l17 -32 -144
-138 c-79 -75 -147 -137 -151 -138 -4 0 -15 14 -24 31 -11 23 -13 34 -5 39 7
3 72 66 146 138 74 73 136 132 139 132 3 0 13 -14 22 -32z m190 -49 c24 -6 44
-14 44 -18 0 -3 -63 -69 -139 -145 l-139 -139 -93 19 c-52 10 -96 20 -98 21
-7 5 252 254 274 263 29 12 99 12 151 -1z m74 -59 c0 -16 -277 -280 -294 -280
-22 0 11 39 137 160 128 125 157 147 157 120z m-2792 -187 l-103 -103 -33 12
c-17 7 -32 15 -32 18 0 4 60 65 133 136 l132 129 3 -44 c3 -44 3 -45 -100
-148z m-53 103 c17 -6 10 -16 -55 -79 -41 -39 -110 -105 -152 -146 l-77 -74
-105 51 c-59 28 -106 54 -106 57 0 21 87 89 128 100 37 10 63 28 123 89 l76
76 74 -33 c41 -19 83 -37 94 -41z m1582 -135 c104 -48 185 -166 187 -271 1
-61 -15 -91 -86 -164 -21 -22 -38 -43 -38 -48 0 -4 -4 -8 -9 -8 -5 0 -55 -45
-111 -100 -57 -55 -106 -100 -111 -100 -5 0 -9 -6 -9 -12 0 -7 -14 -24 -31
-38 -17 -14 -40 -35 -52 -47 -11 -13 -27 -23 -35 -23 -7 0 -12 -6 -10 -12 5
-14 -15 -38 -29 -38 -5 0 -19 -13 -31 -29 -12 -17 -37 -42 -56 -56 l-35 -26
-65 68 -65 68 67 68 67 68 0 230 0 230 117 115 c64 63 131 121 150 129 47 20
135 18 185 -4z m1246 -26 c104 -48 106 -39 -53 -196 -78 -76 -147 -139 -154
-139 -6 0 -20 6 -31 14 -18 12 -106 51 -159 70 -15 5 6 30 125 146 164 159
161 158 272 105z m671 -66 c-10 -11 -28 -26 -39 -31 -14 -8 -12 -2 9 21 33 34
61 44 30 10z m-3664 -14 c0 -2 -19 -23 -42 -47 -25 -26 -43 -38 -46 -30 -2 7
13 28 33 47 32 31 55 43 55 30z m2957 -152 c-76 -74 -141 -132 -145 -128 -8 7
270 276 278 268 3 -2 -57 -66 -133 -140z m-2975 54 c-18 -18 -32 -43 -32 -55
0 -18 -6 -22 -30 -22 -16 0 -30 4 -30 9 0 12 112 112 119 106 2 -3 -10 -20
-27 -38z m2630 -9 c-23 -22 -44 -39 -46 -37 -3 2 -7 15 -11 29 -5 23 -1 26 42
40 26 9 50 14 53 12 2 -1 -15 -21 -38 -44z m-2837 -118 c-16 -16 -31 -28 -33
-25 -7 7 39 55 52 55 5 0 -3 -13 -19 -30z m3246 -19 l54 -50 -148 -147 -147
-147 -53 50 c-29 27 -71 61 -95 74 -23 13 -42 27 -42 30 0 3 13 17 28 32 20
19 46 30 85 37 74 12 90 21 171 101 38 38 74 69 81 69 6 0 36 -22 66 -49z
m-3146 -37 l52 -56 -34 7 c-30 5 -122 40 -131 50 -4 4 48 54 56 55 2 0 27 -25
57 -56z m3881 -6 c7 -23 11 -19 -53 -46 -77 -33 -82 -27 -29 27 49 50 70 55
82 19z m-483 -67 c20 -35 27 -63 27 -101 l0 -52 -131 -126 c-72 -70 -135 -128
-139 -130 -4 -2 -10 12 -14 31 -3 18 -21 58 -40 88 l-33 54 141 142 c77 79
146 143 152 143 6 0 23 -22 37 -49z m-668 -20 c3 -5 1 -12 -5 -16 -5 -3 -10 1
-10 9 0 18 6 21 15 7z m425 -58 c0 -3 -40 -48 -90 -99 -92 -95 -92 -95 -95
-182 0 -21 -10 -41 -29 -60 l-28 -27 -16 25 c-9 14 -38 46 -66 72 l-50 47 52
-6 51 -6 123 121 c108 107 148 138 148 115z m1277 -35 c-3 -7 -5 -2 -5 12 0
14 2 19 5 13 2 -7 2 -19 0 -25z m-902 -119 c-72 -72 -139 -134 -150 -139 -32
-13 -38 0 -13 28 13 14 -4 2 -38 -26 -34 -29 -70 -68 -80 -87 -21 -39 -32 -42
-76 -19 l-31 16 148 143 c142 136 150 142 177 133 31 -11 34 -18 16 -36 -7 -7
-9 -12 -5 -12 5 0 41 29 82 65 124 108 108 73 -30 -66z m185 76 c0 -14 -6 -40
-14 -58 -14 -35 -239 -262 -259 -262 -7 0 -13 15 -15 34 -3 32 5 43 135 173
76 76 141 138 146 138 4 0 7 -11 7 -25z m200 -104 c0 -20 -43 -37 -120 -46
l-55 -6 58 56 58 56 30 -21 c16 -12 29 -29 29 -39z m-1217 -18 c4 -3 3 -11 -2
-17 -5 -6 -11 -23 -13 -38 l-3 -27 -25 19 -25 19 24 25 c25 27 33 30 44 19z
m772 -53 c-27 -27 -54 -50 -60 -50 -5 0 15 23 45 50 71 64 78 64 15 0z m207
-7 c10 -9 18 -24 18 -34 0 -9 6 -20 13 -22 8 -3 -1 -17 -23 -38 -19 -17 -86
-82 -148 -143 l-113 -111 -29 35 c-16 19 -30 40 -30 45 0 9 280 285 289 285 3
0 13 -7 23 -17z m-2359 -103 c86 -94 137 -214 136 -320 0 -74 -26 -158 -53
-174 -33 -20 -62 -53 -58 -66 3 -9 -1 -11 -12 -7 -11 5 -16 1 -16 -13 0 -11
-4 -20 -9 -20 -13 0 -21 26 -21 70 0 51 -44 183 -78 237 -15 23 -51 69 -79
101 l-53 59 90 87 c49 47 96 86 103 86 8 0 31 -18 50 -40z m2478 -17 c7 -8
-12 -32 -62 -81 -63 -61 -71 -74 -71 -106 0 -45 -14 -52 -63 -32 -21 9 -53 16
-71 16 -19 0 -34 3 -34 7 0 4 53 60 117 125 l117 117 29 -17 c16 -9 33 -22 38
-29z m-811 27 c0 -5 -4 -10 -10 -10 -5 0 -10 5 -10 10 0 6 5 10 10 10 6 0 10
-4 10 -10z m-427 -48 c16 -17 15 -20 -12 -46 l-28 -27 -17 26 c-17 25 -17 28
0 46 21 24 36 24 57 1z m1309 -40 c51 -48 47 -68 -16 -77 -47 -7 -136 1 -136
13 0 9 93 102 103 102 4 0 26 -17 49 -38z m-3642 7 c0 -6 -7 -17 -16 -26 -24
-25 -43 0 -19 27 17 19 35 19 35 -1z m2395 -9 c4 -6 -5 -10 -20 -10 -15 0 -24
4 -20 10 3 6 12 10 20 10 8 0 17 -4 20 -10z m-2386 -41 c-16 -10 -23 -4 -14
10 3 6 11 8 17 5 6 -4 5 -9 -3 -15z m2531 -19 c0 -5 -4 -10 -10 -10 -5 0 -10
5 -10 10 0 6 5 10 10 10 6 0 10 -4 10 -10z m-389 -61 l42 -50 -49 -50 c-47
-48 -71 -62 -61 -36 5 13 -10 90 -27 145 -6 17 -3 24 16 31 34 14 33 15 79
-40z m-297 -15 c14 -14 14 -17 -1 -38 -9 -12 -26 -29 -37 -38 -21 -15 -21 -14
-18 38 3 44 7 54 22 54 10 0 26 -7 34 -16z m510 -11 c4 -9 3 -20 -2 -25 -6 -6
-11 1 -14 16 -6 29 6 35 16 9z m1188 -100 c39 -44 66 -87 61 -100 -3 -8 -21
-13 -41 -13 -38 1 -159 24 -168 33 -7 6 98 107 112 107 5 0 22 -12 36 -27z
m271 -8 c-7 -21 -13 -19 -13 6 0 11 4 18 10 14 5 -3 7 -12 3 -20z m-1303 -21
c0 -7 -13 -14 -30 -16 -36 -5 -37 0 -9 31 17 18 23 20 30 9 5 -7 9 -18 9 -24z
m1317 -16 c-3 -8 -6 -5 -6 6 -1 11 2 17 5 13 3 -3 4 -12 1 -19z m-507 -31 c0
-2 -13 -16 -29 -31 l-29 -27 -4 30 c-4 29 -3 31 29 31 18 0 33 -1 33 -3z m25
-40 c-4 -15 1 -32 15 -50 26 -32 25 -33 -36 -7 l-47 21 28 29 c34 36 47 38 40
7z m432 -49 c-3 -8 -6 -5 -6 6 -1 11 2 17 5 13 3 -3 4 -12 1 -19z m-2543 -44
c9 -3 16 -9 16 -13 0 -3 -65 -69 -145 -145 -106 -100 -150 -136 -162 -132 -13
5 15 39 127 151 80 80 146 145 147 145 1 0 8 -3 17 -6z m28 -151 c9 -51 12
-94 8 -103 -17 -30 -270 -274 -277 -267 -4 4 -9 51 -11 104 l-4 95 128 129
c71 71 131 129 135 129 3 0 13 -39 21 -87z m2233 6 c0 -17 -28 -23 -63 -14
l-27 7 35 13 c41 15 55 14 55 -6z m-1981 -15 c9 -3 16 -9 16 -13 0 -3 -65 -69
-145 -145 -106 -100 -150 -136 -162 -132 -13 5 15 39 127 151 80 80 146 145
147 145 1 0 8 -3 17 -6z m56 -141 c14 -54 25 -101 25 -105 0 -8 -52 -63 -178
-186 l-106 -103 -15 51 c-9 29 -20 79 -26 113 l-12 61 137 133 c75 73 140 133
144 133 4 0 18 -44 31 -97z m1524 60 c4 -11 -4 -28 -26 -50 l-33 -34 -11 43
c-10 42 -9 43 15 49 42 11 49 10 55 -8z m-1770 -42 c5 -7 -274 -281 -294 -289
-5 -2 -12 3 -16 10 -5 8 40 58 137 150 137 131 161 149 173 129z m494 -4 c-2
-8 -66 -75 -143 -150 -109 -104 -144 -133 -156 -126 -13 7 12 36 125 149 126
125 184 167 174 127z m-953 -7 c-3 -5 -16 -15 -28 -21 -21 -10 -21 -9 2 10 25
23 36 27 26 11z m2275 -10 c10 -18 9 -19 -15 -8 -27 12 -33 28 -10 28 8 0 19
-9 25 -20z m-2430 -4 c0 -3 -4 -8 -10 -11 -5 -3 -10 -1 -10 4 0 6 5 11 10 11
6 0 10 -2 10 -4z m59 -31 c-34 -36 -53 -43 -64 -24 -12 18 36 59 68 59 l29 0
-33 -35z m1081 19 c0 -8 14 -49 31 -91 l32 -75 -80 -81 c-45 -45 -83 -94 -87
-108 -6 -28 -85 -119 -103 -119 -6 0 -29 46 -52 102 l-41 102 142 143 c78 79
146 143 150 143 4 0 8 -7 8 -16z m254 -31 c4 -4 -55 -69 -131 -145 -123 -123
-163 -155 -163 -130 0 8 272 282 281 282 3 0 9 -3 13 -7z m646 -71 c0 -6 -34
-45 -75 -85 -42 -40 -76 -81 -77 -92 0 -11 5 -59 12 -107 10 -76 10 -90 -3
-103 -9 -8 -20 -15 -25 -15 -13 0 -162 160 -162 174 0 6 64 75 143 154 l142
143 22 -28 c13 -15 23 -34 23 -41z m587 44 c-2 -6 -14 -12 -26 -14 -20 -3 -21
-1 -10 16 13 20 43 19 36 -2z m-1162 -62 l37 -66 -68 -71 c-38 -39 -75 -76
-82 -82 -7 -5 -17 -41 -23 -80 -9 -56 -17 -74 -41 -97 l-31 -29 -14 21 c-28
40 -103 180 -103 193 0 7 10 21 23 31 12 11 74 70 139 132 64 63 119 114 121
114 3 0 22 -30 42 -66z m719 49 c5 -11 -5 -29 -31 -55 -35 -36 -36 -40 -26
-70 10 -28 28 -89 39 -133 25 -98 8 -103 -88 -26 -40 32 -83 69 -96 83 l-23
25 103 96 c56 54 105 97 109 97 4 0 10 -8 13 -17z m-637 -128 c-75 -74 -143
-135 -150 -135 -14 0 263 269 278 269 6 0 -52 -60 -128 -134z m817 98 c29 -59
56 -144 50 -154 -3 -5 -11 -9 -17 -9 -15 0 -155 85 -181 110 -25 25 -13 43 20
28 22 -10 28 -8 61 25 19 20 38 37 42 37 4 0 15 -17 25 -37z m-607 -20 l29
-48 -83 -80 -83 -80 0 -90 c-1 -73 -4 -94 -19 -112 -11 -13 -21 -23 -24 -23
-6 0 -122 150 -136 178 -7 13 -10 27 -7 30 52 58 274 272 282 272 6 0 24 -21
41 -47z m-1058 -219 c-37 -51 -64 -73 -75 -61 -5 4 16 32 46 62 30 30 56 53
58 50 3 -2 -11 -25 -29 -51z m289 -139 c-6 -14 -17 -25 -25 -25 -18 0 -16 6 9
30 28 26 30 25 16 -5z m3187 -1206 c3 -4 -2 -26 -12 -48 l-17 -40 -18 47 c-10
26 -18 50 -18 53 0 8 59 -2 65 -12z m-5682 -9 c-3 -11 -12 -20 -21 -20 -13 0
-12 3 3 20 10 11 19 20 21 20 1 0 0 -9 -3 -20z m5771 -14 c27 -3 63 -15 81
-26 18 -11 47 -20 64 -20 20 0 30 -4 26 -10 -4 -7 2 -9 17 -5 12 3 55 -3 93
-13 54 -13 69 -21 67 -34 -1 -9 3 -20 9 -24 8 -5 9 -3 4 6 -6 10 -3 12 13 8
12 -4 22 -2 22 4 0 5 5 6 10 3 6 -4 8 -16 4 -28 l-6 -22 19 22 c13 15 26 20
46 16 15 -3 24 -10 21 -15 -4 -6 2 -8 15 -3 12 4 28 2 36 -5 8 -6 18 -9 22 -7
5 3 24 -2 43 -10 19 -9 41 -15 48 -14 8 1 24 -5 38 -14 13 -8 24 -14 24 -11 0
4 90 -16 165 -37 33 -9 45 -16 35 -20 -8 -4 1 -5 20 -2 35 5 35 4 10 -10 -30
-17 -24 -19 20 -4 22 8 34 8 39 1 3 -5 30 -13 59 -16 30 -3 59 -9 64 -12 6 -4
31 -13 57 -20 l46 -14 -45 4 c-25 1 -37 1 -27 -1 20 -5 23 -20 5 -26 -7 -2 -4
-2 7 0 66 14 95 15 95 4 0 -6 7 -11 16 -11 8 0 13 4 10 9 -4 5 5 6 21 2 28 -8
34 -22 12 -30 -7 -2 -9 1 -5 8 4 6 2 11 -4 11 -7 0 -9 -8 -5 -20 8 -25 -10
-27 -24 -2 -6 9 -11 12 -11 6 0 -5 5 -15 11 -21 8 -8 5 -17 -10 -32 -12 -12
-26 -19 -30 -16 -5 2 -8 -3 -7 -13 0 -10 -7 -18 -19 -18 -38 -3 -40 -4 -25
-14 24 -15 -39 -67 -74 -61 -5 1 -6 -5 -3 -13 7 -16 -42 -68 -66 -72 -8 -1
-23 -7 -34 -13 -14 -8 -15 -10 -3 -11 9 0 21 5 28 12 7 7 12 8 12 2 0 -14 -39
-46 -50 -39 -11 7 -40 -5 -40 -17 0 -6 7 -5 15 2 9 7 18 11 20 8 8 -8 -65 -78
-81 -78 -8 0 -13 -4 -9 -9 8 -13 -16 -26 -42 -23 -11 2 -24 -2 -28 -8 -5 -9
-1 -10 14 -5 12 3 21 2 21 -4 0 -5 -9 -13 -20 -16 -11 -4 -18 -11 -15 -16 4
-5 -4 -9 -15 -9 -17 0 -21 -4 -16 -17 4 -10 4 -15 1 -11 -9 8 -52 -35 -47 -46
3 -5 -2 -7 -11 -3 -10 4 -14 2 -11 -6 2 -7 -10 -24 -28 -37 -18 -13 -37 -30
-41 -37 -5 -7 -13 -11 -18 -8 -5 4 -6 11 -3 17 4 7 2 8 -5 4 -9 -6 -9 -11 -1
-21 8 -10 -11 -34 -85 -106 -53 -52 -99 -96 -101 -99 -3 -2 -10 2 -15 10 -9
12 -10 11 -5 -4 7 -20 -11 -49 -25 -40 -5 3 -9 1 -9 -5 0 -6 -11 -21 -25 -35
-20 -20 -26 -22 -36 -10 -7 8 -14 12 -17 9 -3 -2 0 -10 6 -17 15 -19 -58 -101
-81 -92 -22 8 -21 12 3 32 38 32 29 75 -96 442 -46 132 -84 290 -78 315 4 15
2 25 -5 25 -6 0 -8 -8 -5 -17 2 -10 -7 4 -20 32 -14 27 -22 52 -17 55 12 8 24
63 11 55 -5 -3 -11 -16 -11 -28 -1 -20 -2 -21 -6 -2 -3 11 -10 23 -15 26 -12
8 -41 129 -34 137 3 3 -1 10 -8 16 -15 12 -47 113 -49 158 -1 14 -5 24 -9 22
-4 -2 -10 16 -13 41 -5 32 -3 55 9 79 9 19 16 40 16 46 0 9 4 9 13 3 6 -6 34
-13 61 -17z m245 -1425 c7 -5 10 -14 6 -21 -6 -10 -9 -9 -15 0 -4 7 -13 9 -20
5 -9 -6 -9 -9 1 -16 7 -4 10 -12 5 -16 -5 -4 -11 -2 -13 5 -3 6 -9 9 -15 6 -6
-4 -5 -9 3 -15 10 -6 4 -17 -23 -43 -43 -42 -63 -49 -27 -10 13 15 18 25 10
22 -8 -2 -25 -19 -39 -36 -18 -24 -20 -31 -8 -26 24 9 20 -1 -8 -20 -14 -9
-33 -13 -42 -9 -13 5 1 24 72 93 49 48 91 88 94 88 3 1 11 -2 19 -7z"/>
<path d="M5932 5390 c0 -14 2 -19 5 -12 2 6 2 18 0 25 -3 6 -5 1 -5 -13z"/>
<path d="M5932 5315 c0 -16 2 -22 5 -12 2 9 2 23 0 30 -3 6 -5 -1 -5 -18z"/>
<path d="M5761 4684 c0 -11 3 -14 6 -6 3 7 2 16 -1 19 -3 4 -6 -2 -5 -13z"/>
<path d="M3946 6393 c-6 -14 -5 -15 5 -6 7 7 10 15 7 18 -3 3 -9 -2 -12 -12z"/>
<path d="M6591 2214 c0 -11 3 -14 6 -6 3 7 2 16 -1 19 -3 4 -6 -2 -5 -13z"/>
<path d="M6735 2200 c27 -12 43 -12 25 0 -8 5 -22 9 -30 9 -10 0 -8 -3 5 -9z"/>
<path d="M6626 2173 c-3 -3 -6 -16 -6 -27 0 -18 2 -19 11 -6 8 12 10 9 6 -13
-2 -15 0 -30 4 -33 5 -3 9 13 9 35 0 38 -10 57 -24 44z"/>
<path d="M6900 2130 c0 -5 9 -10 20 -10 11 0 20 5 20 10 0 6 -9 10 -20 10 -11
0 -20 -4 -20 -10z"/>
<path d="M7000 2130 c8 -5 24 -9 35 -9 l20 0 -20 9 c-11 5 -27 9 -35 9 -13 1
-13 0 0 -9z"/>
<path d="M6998 2103 c6 -2 18 -2 25 0 6 3 1 5 -13 5 -14 0 -19 -2 -12 -5z"/>
<path d="M6948 2093 c7 -3 16 -2 19 1 4 3 -2 6 -13 5 -11 0 -14 -3 -6 -6z"/>
<path d="M7233 2063 c10 -15 43 -22 58 -12 10 6 8 9 -8 9 -12 0 -29 3 -39 7
-11 4 -15 3 -11 -4z"/>
<path d="M7260 2030 l-25 -8 28 -1 c15 -1 27 4 27 9 0 6 -1 10 -2 9 -2 -1 -14
-5 -28 -9z"/>
<path d="M7338 2033 c-43 -7 -33 -18 15 -19 23 0 33 1 23 4 -15 3 -16 6 -5 13
8 5 10 8 4 7 -5 0 -22 -3 -37 -5z"/>
<path d="M6672 1990 c0 -14 2 -19 5 -12 2 6 2 18 0 25 -3 6 -5 1 -5 -13z"/>
<path d="M6701 1994 c0 -11 3 -14 6 -6 3 7 2 16 -1 19 -3 4 -6 -2 -5 -13z"/>
<path d="M7543 1953 c15 -2 27 -9 27 -14 0 -5 5 -9 10 -9 6 0 10 7 10 15 0 11
-10 15 -37 14 -31 -2 -33 -3 -10 -6z"/>
<path d="M6680 1921 c0 -5 5 -13 10 -16 6 -3 10 -2 10 4 0 5 -4 13 -10 16 -5
3 -10 2 -10 -4z"/>
<path d="M7915 1860 c-3 -6 4 -10 17 -11 21 0 21 -1 4 -8 -15 -6 -16 -10 -7
-15 20 -13 37 10 21 29 -14 17 -26 19 -35 5z"/>
<path d="M6712 1828 c6 -21 15 -35 20 -32 12 8 10 16 -12 44 l-19 25 11 -37z"/>
<path d="M7967 1813 c-12 -12 -7 -22 8 -17 8 4 15 10 15 15 0 11 -14 12 -23 2z"/>
<path d="M7922 1785 c0 -16 2 -22 5 -12 2 9 2 23 0 30 -3 6 -5 -1 -5 -18z"/>
<path d="M6780 1711 c0 -11 4 -22 9 -25 4 -3 6 6 3 19 -5 30 -12 33 -12 6z"/>
<path d="M7870 1714 c0 -8 5 -12 10 -9 6 3 10 10 10 16 0 5 -4 9 -10 9 -5 0
-10 -7 -10 -16z"/>
<path d="M7776 1672 c-7 -12 22 -38 31 -28 4 3 0 14 -9 22 -9 10 -18 12 -22 6z"/>
<path d="M6771 1654 c0 -11 3 -14 6 -6 3 7 2 16 -1 19 -3 4 -6 -2 -5 -13z"/>
<path d="M7680 1570 c0 -5 5 -10 11 -10 5 0 7 5 4 10 -3 6 -8 10 -11 10 -2 0
-4 -4 -4 -10z"/>
<path d="M6831 1486 c-1 -34 2 -47 9 -40 7 7 7 24 1 50 l-9 39 -1 -49z"/>
<path d="M6857 1510 c3 -11 10 -23 16 -27 7 -4 8 0 4 11 -4 10 -7 22 -7 27 0
5 -4 9 -9 9 -5 0 -7 -9 -4 -20z"/>
<path d="M7610 1498 c-12 -22 -12 -22 6 -6 10 10 15 20 12 24 -4 3 -12 -5 -18
-18z"/>
<path d="M7660 1500 c0 -5 5 -10 11 -10 5 0 7 5 4 10 -3 6 -8 10 -11 10 -2 0
-4 -4 -4 -10z"/>
<path d="M7520 1480 c0 -5 5 -10 10 -10 6 0 10 5 10 10 0 6 -4 10 -10 10 -5 0
-10 -4 -10 -10z"/>
<path d="M6865 1450 c-3 -5 -1 -10 4 -10 6 0 11 5 11 10 0 6 -2 10 -4 10 -3 0
-8 -4 -11 -10z"/>
<path d="M7550 1450 c-24 -8 -24 -8 7 -9 17 -1 35 4 38 9 7 11 -9 11 -45 0z"/>
<path d="M7600 1429 c0 -5 5 -7 10 -4 6 3 10 8 10 11 0 2 -4 4 -10 4 -5 0 -10
-5 -10 -11z"/>
<path d="M6840 1411 c0 -6 5 -13 10 -16 6 -3 10 1 10 9 0 9 -4 16 -10 16 -5 0
-10 -4 -10 -9z"/>
<path d="M6871 1404 c0 -11 3 -14 6 -6 3 7 2 16 -1 19 -3 4 -6 -2 -5 -13z"/>
<path d="M7521 1404 c0 -11 3 -14 6 -6 3 7 2 16 -1 19 -3 4 -6 -2 -5 -13z"/>
<path d="M6861 1358 c17 -34 19 -34 17 -5 -1 15 -8 27 -16 27 -10 0 -10 -5 -1
-22z"/>
<path d="M7441 1314 c0 -11 3 -14 6 -6 3 7 2 16 -1 19 -3 4 -6 -2 -5 -13z"/>
<path d="M6904 1287 c-2 -7 -1 -24 4 -38 9 -22 10 -21 14 14 4 36 -7 51 -18
24z"/>
<path d="M6942 1270 c0 -14 2 -19 5 -12 2 6 2 18 0 25 -3 6 -5 1 -5 -13z"/>
<path d="M6936 1192 c-9 -26 -1 -41 13 -26 5 5 5 18 1 29 -7 19 -7 19 -14 -3z"/>
<path d="M7300 1200 c-8 -5 -11 -12 -8 -16 4 -3 14 1 23 10 18 17 9 21 -15 6z"/>
<path d="M7335 1180 c3 -5 8 -10 11 -10 2 0 4 5 4 10 0 6 -5 10 -11 10 -5 0
-7 -4 -4 -10z"/>
<path d="M7310 1160 c0 -5 5 -10 10 -10 6 0 10 5 10 10 0 6 -4 10 -10 10 -5 0
-10 -4 -10 -10z"/>
<path d="M6930 1130 c0 -6 4 -9 9 -5 5 3 12 -7 14 -22 l5 -28 -2 29 c-1 27
-26 52 -26 26z"/>
<path d="M7222 1108 c3 -7 13 -15 23 -17 17 -3 17 -2 3 13 -20 19 -31 21 -26
4z"/>
<path d="M7032 1080 c0 -14 2 -19 5 -12 2 6 2 18 0 25 -3 6 -5 1 -5 -13z"/>
<path d="M6960 1050 c8 -5 20 -10 25 -10 6 0 3 5 -5 10 -8 5 -19 10 -25 10 -5
0 -3 -5 5 -10z"/>
<path d="M7195 1050 c-3 -5 -1 -10 4 -10 6 0 11 5 11 10 0 6 -2 10 -4 10 -3 0
-8 -4 -11 -10z"/>
<path d="M7162 1030 c13 -20 28 -27 28 -12 0 10 -22 32 -32 32 -5 0 -3 -9 4
-20z"/>
<path d="M7001 1008 c0 -9 -4 -23 -7 -31 -3 -9 2 -16 15 -20 11 -3 22 1 25 9
3 8 0 11 -9 8 -9 -4 -15 4 -18 23 -2 15 -5 20 -6 11z"/>
<path d="M7125 1009 c-4 -6 -5 -12 -2 -15 2 -3 7 2 10 11 7 17 1 20 -8 4z"/>
<path d="M7036 944 c-3 -9 -2 -12 5 -9 5 4 17 1 25 -6 8 -6 17 -10 20 -7 2 3
-6 12 -20 21 -21 14 -25 15 -30 1z"/>
<path d="M7000 931 c0 -5 5 -13 10 -16 6 -3 10 -2 10 4 0 5 -4 13 -10 16 -5 3
-10 2 -10 -4z"/>
<path d="M7010 886 c0 -2 7 -7 16 -10 8 -3 12 -2 9 4 -6 10 -25 14 -25 6z"/>
<path d="M7000 854 c0 -8 5 -12 10 -9 6 4 8 11 5 16 -9 14 -15 11 -15 -7z"/>
<path d="M6875 730 c3 -5 8 -10 11 -10 2 0 4 5 4 10 0 6 -5 10 -11 10 -5 0 -7
-4 -4 -10z"/>
<path d="M1357 3934 c-93 -92 -167 -168 -165 -169 3 -4 303 288 327 318 31 39
-2 8 -162 -149z"/>
<path d="M1130 3713 c-35 -35 -35 -36 -4 -15 34 23 61 52 48 51 -5 0 -25 -16
-44 -36z"/>
</g>
</svg>
